<svg id="Capa_1" data-name="Capa 1" xmlns="http://www.w3.org/2000/svg" viewBox="0 0 999.67 999.45"><path d="M500.27,243.48A256.25,256.25,0,1,0,756.52,499.73,255.84,255.84,0,0,0,500.27,243.48Zm0,422.84c-91.66,0-166.59-74.71-166.59-166.59s74.71-166.6,166.59-166.6,166.6,74.71,166.6,166.6-74.94,166.59-166.6,166.59ZM826.77,233A59.77,59.77,0,1,1,767,173.23,59.63,59.63,0,0,1,826.77,233Zm169.72,60.66c-3.79-80.07-22.08-151-80.73-209.42C857.32,25.81,786.41,7.53,706.34,3.51,623.83-1.17,376.5-1.17,294,3.51,214.14,7.3,143.22,25.59,84.57,84S7.85,213.37,3.84,293.43C-.84,376-.84,623.28,3.84,705.79c3.79,80.07,22.08,151,80.73,209.42S213.92,991.92,294,995.94c82.52,4.68,329.85,4.68,412.36,0,80.07-3.79,151-22.08,209.42-80.73,58.43-58.43,76.71-129.35,80.73-209.42,4.68-82.51,4.68-329.62,0-412.13ZM889.89,794.33c-17.4,43.71-51.08,77.39-95,95-65.79,26.09-221.9,20.07-294.61,20.07s-229,5.8-294.6-20.07c-43.71-17.4-77.39-51.07-95-95-26.09-65.79-20.07-221.9-20.07-294.6s-5.8-229,20.07-294.61c17.4-43.71,51.07-77.39,95-95C271.46,84,427.57,90,500.27,90s229-5.8,294.61,20.07c43.71,17.4,77.39,51.08,95,95C916,270.91,910,427,910,499.73S916,728.76,889.89,794.33Z" transform="translate(-0.33 0)"/></svg>